<svg width="78" height="48" viewBox="0 0 78 48" fill="none" xmlns="http://www.w3.org/2000/svg">
<path d="M40.0518 16.5208C40.0518 18.807 39.6802 20.9552 38.937 22.9652C38.2092 24.9752 37.1717 26.7244 35.8246 28.2127C34.4774 29.7011 32.8592 30.8749 30.9701 31.7341C29.0965 32.5934 27.0138 33.023 24.7221 33.023H7.92901V28.3048H24.7221C26.3634 28.3048 27.8345 27.9979 29.1352 27.3842C30.4514 26.7704 31.5585 25.9342 32.4567 24.8755C33.3702 23.8015 34.0671 22.5509 34.547 21.1239C35.0426 19.6816 35.2903 18.1473 35.2903 16.5208C35.2903 14.8943 35.0426 13.3677 34.547 11.9407C34.0671 10.5137 33.3702 9.27085 32.4567 8.21214C31.5585 7.13805 30.4514 6.29414 29.1352 5.68039C27.8345 5.05129 26.3634 4.73675 24.7221 4.73675H5.55986V33.023H0.79834V0.0185242H24.7221C27.0138 0.0185242 29.0965 0.455822 30.9701 1.33042C32.8592 2.18967 34.4774 3.37115 35.8246 4.87484C37.1717 6.36319 38.2092 8.11239 38.937 10.1224C39.6802 12.1171 40.0518 14.2499 40.0518 16.5208Z" fill="#EEEEEE"/>
<path d="M78 23.5866C78 24.9062 77.7523 26.1413 77.2567 27.2921C76.7613 28.4276 76.08 29.4249 75.2128 30.2842C74.3612 31.1281 73.3547 31.7955 72.1933 32.2865C71.0475 32.7775 69.8164 33.023 68.5002 33.023H24.7221V28.3048H68.5002C69.1661 28.3048 69.7854 28.1821 70.3584 27.9366C70.9313 27.691 71.4268 27.3535 71.8449 26.9239C72.2785 26.4942 72.6191 25.9956 72.8669 25.4279C73.1147 24.8448 73.2385 24.2311 73.2385 23.5866C73.2385 22.9422 73.1147 22.3361 72.8669 21.7684C72.6191 21.2007 72.2785 20.7019 71.8449 20.2723C71.4268 19.8427 70.9313 19.5051 70.3584 19.2596C69.7854 19.0141 69.1661 18.8914 68.5002 18.8914H49.0825C47.7818 18.8914 46.5508 18.6459 45.3895 18.1549C44.2281 17.6639 43.2139 16.9965 42.3467 16.1526C41.4951 15.2933 40.8137 14.2883 40.3027 13.1375C39.8072 11.9867 39.5595 10.7592 39.5595 9.45496C39.5595 8.16605 39.8072 6.94625 40.3027 5.79547C40.8137 4.64468 41.4951 3.64733 42.3467 2.80342C43.2139 1.94418 44.2281 1.26904 45.3895 0.778043C46.5508 0.271697 47.7818 0.0185242 49.0825 0.0185242H75.6309V4.73675H49.0825C48.4322 4.73675 47.8127 4.8595 47.2243 5.105C46.6514 5.35049 46.1482 5.68806 45.7146 6.11769C45.2811 6.54731 44.9404 7.05366 44.6927 7.63672C44.4449 8.2044 44.321 8.81054 44.321 9.45496C44.321 10.0994 44.4449 10.7132 44.6927 11.2963C44.9404 11.864 45.2811 12.3626 45.7146 12.7922C46.1482 13.2218 46.6514 13.5594 47.2243 13.8049C47.8127 14.0504 48.4322 14.1731 49.0825 14.1731H68.5002C69.8164 14.1731 71.0475 14.4264 72.1933 14.9327C73.3547 15.4237 74.3612 16.0988 75.2128 16.9581C76.08 17.802 76.7613 18.7993 77.2567 19.9501C77.7523 21.0855 78 22.2977 78 23.5866Z" fill="#EEEEEE"/>
<path d="M11.9238 19.6666C11.9057 19.6689 11.783 19.6892 11.6559 19.7095C11.388 19.7523 10.9521 19.8538 10.691 19.935C9.65572 20.2597 8.81122 20.7468 8.04383 21.4639C7.172 22.2801 6.27067 22.8687 4.91982 23.5114C4.03211 23.9353 2.74255 24.4157 1.66641 24.7269C1.52792 24.7674 1.41667 24.8057 1.42122 24.8125C1.43938 24.8306 2.3339 24.5667 2.94461 24.3615C4.73365 23.7617 6.20937 23.0559 7.27643 22.2892C7.55795 22.084 7.64195 22.0164 8.16183 21.5608C8.64093 21.1391 8.88387 20.9498 9.22213 20.7242C9.95998 20.2349 10.8114 19.9056 11.8784 19.7005C11.9964 19.6779 12.0645 19.6576 12.026 19.6576C11.9897 19.6576 11.942 19.6621 11.9238 19.6666Z" fill="#EEEEEE"/>
<path d="M14.6255 19.8087C14.4939 19.8177 14.3645 19.838 14.3373 19.8516C14.2351 19.908 14.2533 19.9282 14.6823 20.262C14.7958 20.3499 15.0797 20.5957 15.3157 20.8099C15.8084 21.2564 15.8675 21.2992 16.0877 21.3714C16.2352 21.4188 16.2875 21.4233 16.737 21.4233C17.0049 21.4233 17.6292 21.4098 18.1219 21.3917C19.0981 21.3579 21.2118 21.3692 21.7885 21.4098C21.9633 21.4233 22.179 21.4391 22.2652 21.4436L22.4242 21.4571L22.2086 21.3534C21.5047 21.0128 19.3456 20.2056 18.8143 20.0815C18.526 20.0139 17.5611 19.8966 16.7483 19.8335C16.3783 19.8042 14.9457 19.7861 14.6255 19.8087Z" fill="#EEEEEE"/>
<path d="M12.3211 20.059C11.867 20.1109 11.2995 20.2507 10.7773 20.4401C10.4867 20.5438 10.38 20.6024 10.38 20.6498C10.38 20.6588 10.4662 20.7581 10.5684 20.8708C10.7841 21.0963 10.9793 21.3714 11.1405 21.6714C11.2018 21.7818 11.2518 21.8765 11.2541 21.8811C11.2586 21.8855 11.7149 21.8697 14.4167 21.7638C14.8322 21.748 15.175 21.73 15.1818 21.7254C15.1931 21.7119 14.9956 21.3985 14.8594 21.2158C14.4144 20.6228 13.8218 20.2236 13.1884 20.0951C12.9705 20.05 12.5572 20.0342 12.3211 20.059Z" fill="#EEEEEE"/>
<path d="M9.61938 20.9565C8.98141 21.2812 8.64546 21.5541 8.33897 21.9938C8.30943 22.0344 8.28899 22.0727 8.29354 22.0772C8.29809 22.0818 8.35941 22.0704 8.42751 22.0524C8.74757 21.969 9.57859 21.9081 10.3822 21.9081C10.9453 21.9081 10.9453 21.9081 10.8477 21.7096C10.7319 21.4774 10.4867 21.1324 10.3096 20.9542C10.0803 20.7242 10.0735 20.7242 9.61938 20.9565Z" fill="#EEEEEE"/>
<path d="M20.1879 21.5924C19.9949 21.6014 19.3864 21.6217 18.837 21.6352C18.2876 21.651 17.8222 21.6668 17.804 21.669C17.7858 21.6736 17.9039 21.678 18.0651 21.6804C19.2502 21.6916 20.9688 21.8653 22.4468 22.1223C22.6966 22.1651 23.0598 22.2283 23.2529 22.2599C23.6819 22.3275 23.8045 22.3636 24.0247 22.4718C24.6763 22.7966 25.3461 23.3941 25.8479 24.0954C25.9001 24.1698 25.4891 23.3468 25.2939 22.986C25.1349 22.6951 25.1077 22.5913 25.1712 22.5395C25.2439 22.4809 26.2088 22.4042 26.9035 22.4042C27.2781 22.4042 27.7821 22.4966 28.2385 22.6522C28.3474 22.6883 28.4429 22.7154 28.4474 22.7086C28.4655 22.6906 27.9365 22.4516 27.7027 22.3748C26.8082 22.0772 25.2371 21.8337 22.8782 21.6262C22.4083 21.5834 20.7509 21.5631 20.1879 21.5924Z" fill="#EEEEEE"/>
<path d="M26.3972 22.5643C25.6912 22.5936 25.5232 22.6139 25.4732 22.6748C25.4051 22.7582 25.4233 22.8597 25.5527 23.11C25.7094 23.4077 25.9613 23.8023 26.0885 23.9421C26.143 24.0029 26.2406 24.0797 26.3042 24.1112C26.4154 24.1698 26.4381 24.1721 26.9762 24.1879C27.5915 24.2082 28.4656 24.2488 28.7176 24.2691C28.8697 24.2803 28.8833 24.2781 28.9378 24.224C28.9832 24.1788 28.9968 24.1428 28.9968 24.0661C28.9968 23.8947 28.772 23.1867 28.6676 23.0311C28.5473 22.8507 28.2726 22.7402 27.6278 22.6071C27.26 22.5327 27.2124 22.5305 26.3972 22.5643Z" fill="#EEEEEE"/>
<path d="M21.65 22.5936C21.5524 22.6365 21.4206 22.7762 21.4071 22.8529C21.3662 23.0581 21.6409 23.4392 21.9383 23.5881C22.2902 23.7662 22.7375 23.7369 22.8669 23.5249C23.0349 23.2521 22.7307 22.8574 22.1812 22.6342C22.0087 22.5643 21.7544 22.5463 21.65 22.5936Z" fill="#EEEEEE"/>
<path d="M22.3788 22.6477C22.7942 22.8665 23.0235 23.1055 23.0257 23.3152C23.0257 23.4122 22.944 23.5677 22.8487 23.6445C22.7533 23.7233 22.7647 23.7301 22.8873 23.6669C23.0575 23.5813 23.1416 23.4234 23.1053 23.2565C23.0439 22.9747 22.7851 22.738 22.3923 22.6049C22.2061 22.5417 22.2016 22.5531 22.3788 22.6477Z" fill="#EEEEEE"/>
<path d="M23.3186 22.5937C22.9667 22.792 23.2868 23.5092 23.8408 23.7685C24.4129 24.0391 24.7966 23.8113 24.6128 23.3129C24.5719 23.207 24.5242 23.1438 24.3562 22.9769C24.1882 22.8101 24.111 22.7538 23.9498 22.6748C23.7727 22.5869 23.7295 22.5756 23.5639 22.5688C23.4299 22.5621 23.3618 22.5711 23.3186 22.5937Z" fill="#EEEEEE"/>
<path d="M24.1837 22.7357C24.5719 23.0446 24.7672 23.331 24.7468 23.5588C24.7399 23.6241 24.7263 23.6985 24.7172 23.7233C24.7013 23.764 24.7059 23.7617 24.7581 23.7143C24.7921 23.6851 24.8353 23.6174 24.8557 23.5655C24.8852 23.4866 24.8875 23.455 24.8648 23.3716C24.8081 23.1596 24.5742 22.9341 24.195 22.7222L24.1042 22.6725L24.1837 22.7357Z" fill="#EEEEEE"/>
<path d="M28.8242 23.092C28.797 23.1596 28.8423 23.2859 29.0194 23.6354C29.2465 24.0886 29.3804 24.2375 29.419 24.0819C29.4508 23.9556 29.2805 23.5226 29.1012 23.2723C28.965 23.0852 28.8537 23.013 28.8242 23.092Z" fill="#EEEEEE"/>
<path d="M18.0197 23.4776C18.392 23.5339 18.6849 23.7233 18.8961 24.0435C19.2184 24.5352 19.332 25.3875 19.1889 26.2602C19.0845 26.8893 18.8961 27.3223 18.5986 27.6132C18.4284 27.78 18.2376 27.8861 17.9856 27.9492L17.8153 27.9943H18.0219C19.0118 28.0011 19.6361 27.1757 19.6816 25.7979C19.6998 25.2274 19.618 24.8148 19.3955 24.3547C19.2093 23.9714 18.9709 23.7166 18.6553 23.5655C18.451 23.4686 18.308 23.4415 18.0356 23.4438L17.8153 23.446L18.0197 23.4776Z" fill="#EEEEEE"/>
<path d="M8.42749 24.2781C8.42749 24.3119 8.67722 25.0245 8.71809 25.1011C8.77486 25.2116 8.91784 25.3424 9.03361 25.3943C9.12901 25.4349 9.38329 25.4417 12.7525 25.4913C13.6651 25.5048 14.6755 25.5206 15.0001 25.5251L15.5904 25.5364L14.9093 25.4935C14.5346 25.4687 13.6969 25.4191 13.0476 25.3808C9.92586 25.2026 9.54448 25.1778 9.39008 25.144C9.07448 25.0763 8.8202 24.8689 8.55914 24.4675C8.48649 24.3571 8.42749 24.2713 8.42749 24.2781Z" fill="#EEEEEE"/>
<path d="M9.33557 25.8543C9.01774 25.8994 8.73624 25.9422 8.71125 25.949C8.6568 25.9603 9.67615 25.9851 11.0837 26.0032C12.0532 26.0167 14.5506 25.9806 14.932 25.9468C15.0637 25.9355 14.9093 25.9265 14.3758 25.9152C13.4721 25.8972 11.1087 25.8183 10.1416 25.7777C9.95997 25.7709 9.79878 25.7845 9.33557 25.8543Z" fill="#EEEEEE"/>
<path d="M20.3127 25.922C20.2991 25.9422 20.3445 27.0066 20.3604 27.0246C20.3717 27.0382 20.9076 27.09 21.5047 27.1374C23.1461 27.2659 24.6831 27.302 26.2042 27.2524C28.5336 27.1757 29.4576 27.0652 29.83 26.8172C30.0297 26.6842 30.0638 26.5127 29.939 26.2444L29.8822 26.1204L29.8141 26.1767C29.4531 26.4789 27.3803 26.6616 25.2621 26.5759C24.2835 26.5375 23.3141 26.4857 23.1302 26.4631C22.826 26.4248 22.6034 26.2986 22.4446 26.0663L22.356 25.94L22.238 25.9558C22.1176 25.9694 20.5329 25.931 20.399 25.9107C20.3604 25.9039 20.3218 25.9084 20.3127 25.922Z" fill="#EEEEEE"/>
<path d="M19.8064 26.409C19.727 26.9502 19.4523 27.4576 19.0777 27.7552C18.9187 27.8793 18.5396 28.0868 18.4692 28.0868C18.4533 28.0868 18.4397 28.098 18.4397 28.1138C18.4397 28.1318 18.56 28.1341 18.9119 28.125C19.4636 28.107 19.7701 28.0778 19.8859 28.0304C20.0039 27.9807 20.5511 27.4937 20.5511 27.4396C20.5511 27.426 20.4263 27.4102 20.2741 27.4012C19.8609 27.3787 19.8927 27.4238 19.8791 26.8465C19.8745 26.5804 19.8609 26.3278 19.8518 26.285C19.836 26.2174 19.8314 26.2309 19.8064 26.409Z" fill="#EEEEEE"/>
<path d="M6.10033 26.5195C6.59072 26.6097 10.6864 27.2343 10.834 27.2434C10.9271 27.2479 11.9033 27.2547 13.0022 27.2591C14.7889 27.2659 14.9524 27.2637 14.546 27.2389C12.7047 27.1239 10.3368 26.9187 7.22415 26.6097C6.66792 26.5533 6.14801 26.5037 6.06628 26.497L5.9187 26.4879L6.10033 26.5195Z" fill="#EEEEEE"/>
<path d="M27.6346 27.4824C27.4916 27.4914 26.7787 27.5027 26.0522 27.5072C25.3234 27.5095 24.7286 27.5185 24.7286 27.5253C24.7286 27.5433 24.9443 27.7282 25.0987 27.8432C25.2508 27.9559 25.5686 28.116 25.7502 28.1724C26.1158 28.2829 26.5267 28.2829 26.9309 28.1747C27.1397 28.1183 27.5121 27.9447 27.705 27.8139C27.8571 27.7124 28.0887 27.5072 28.0887 27.4756C28.0887 27.4531 28.0047 27.4531 27.6346 27.4824Z" fill="#EEEEEE"/>
<path d="M9.75726 40.2915C9.75726 40.6684 9.68429 41.0241 9.53835 41.3583C9.39592 41.689 9.20008 41.9788 8.95083 42.2277C8.70517 42.4731 8.41681 42.6669 8.08565 42.8091C7.75456 42.9513 7.40029 43.0224 7.02289 43.0224H2.62757V41.9451H7.02289C7.25076 41.9451 7.46438 41.9023 7.66377 41.817C7.86314 41.7281 8.03583 41.609 8.18177 41.4596C8.3313 41.3103 8.44882 41.1361 8.53425 40.9369C8.61975 40.7342 8.66246 40.5191 8.66246 40.2915C8.66246 40.064 8.61975 39.8506 8.53425 39.6515C8.44882 39.4524 8.3313 39.2799 8.18177 39.1341C8.03583 38.9848 7.86314 38.8674 7.66377 38.7821C7.46438 38.6968 7.25076 38.6541 7.02289 38.6541H2.0134V45.2093H0.918579V37.5606H7.02289C7.40029 37.5606 7.75456 37.6335 8.08565 37.7794C8.41681 37.9216 8.70517 38.1172 8.95083 38.366C9.20008 38.6114 9.39592 38.8995 9.53835 39.2301C9.68429 39.5609 9.75726 39.9146 9.75726 40.2915ZM21.3182 45.2093H19.8388L17.5424 43.0224H14.1885V41.9451H18.5838C18.8116 41.9451 19.0253 41.9023 19.2247 41.817C19.4241 41.7281 19.5968 41.609 19.7427 41.4596C19.8922 41.3103 20.0097 41.1361 20.0952 40.9369C20.1807 40.7342 20.2234 40.5191 20.2234 40.2915C20.2234 40.064 20.1807 39.8506 20.0952 39.6515C20.0097 39.4524 19.8922 39.2799 19.7427 39.1341C19.5968 38.9848 19.4241 38.8674 19.2247 38.7821C19.0253 38.6968 18.8116 38.6541 18.5838 38.6541H13.5743V45.2093H12.4795V37.5606H18.5838C18.9612 37.5606 19.3155 37.6335 19.6466 37.7794C19.9777 37.9216 20.2661 38.1172 20.5118 38.366C20.761 38.6114 20.9568 38.8995 21.0993 39.2301C21.2452 39.5609 21.3182 39.9146 21.3182 40.2915C21.3182 40.6329 21.2594 40.9565 21.142 41.2623C21.0245 41.5646 20.8625 41.8365 20.6559 42.0784C20.4495 42.3166 20.2056 42.5157 19.9243 42.6757C19.6466 42.8322 19.3457 42.9371 19.0218 42.9905L21.3182 45.2093ZM43.3704 41.385C43.3704 41.7405 43.3242 42.082 43.2315 42.409C43.1425 42.7327 43.0144 43.0367 42.8471 43.3211C42.6832 43.602 42.4856 43.8599 42.2543 44.0945C42.0228 44.3257 41.7647 44.5248 41.4799 44.6919C41.1986 44.8555 40.8942 44.9835 40.5666 45.076C40.2391 45.1649 39.899 45.2093 39.5466 45.2093H35.0071V44.1159H39.5466C39.9239 44.1159 40.2783 44.0448 40.6093 43.9025C40.9404 43.7603 41.2289 43.5665 41.4745 43.3211C41.7238 43.0723 41.9195 42.7824 42.062 42.4518C42.208 42.1175 42.2809 41.7619 42.2809 41.385V38.6541H35.0071V37.5606H43.3704V41.385ZM54.5308 45.2093H46.6107V37.5606H54.5308V38.6541H47.7055V44.1159H54.5308V45.2093ZM53.6016 41.9344H48.2502V40.8409H53.6016V41.9344ZM65.3654 45.2093H60.436C59.9055 45.2093 59.4231 45.1097 58.9888 44.9106C58.5544 44.7115 58.1822 44.4395 57.8726 44.0945C57.5663 43.7496 57.3296 43.3442 57.1623 42.8784C56.9949 42.4126 56.9112 41.9148 56.9112 41.385C56.9112 40.8587 56.9949 40.3644 57.1623 39.9022C57.3296 39.4364 57.5663 39.031 57.8726 38.6861C58.1822 38.3376 58.5544 38.0638 58.9888 37.8647C59.4231 37.662 59.9055 37.5606 60.436 37.5606H65.3654V38.6541H60.436C60.0586 38.6541 59.7186 38.727 59.416 38.8727C59.1169 39.015 58.8623 39.2106 58.6522 39.4595C58.4458 39.7049 58.2856 39.9929 58.1716 40.3236C58.0612 40.6542 58.006 41.008 58.006 41.385C58.006 41.7619 58.0612 42.1175 58.1716 42.4518C58.2856 42.7824 58.4458 43.0723 58.6522 43.3211C58.8623 43.5665 59.1169 43.7603 59.416 43.9025C59.7186 44.0448 60.0586 44.1159 60.436 44.1159H65.3654V45.2093ZM72.3814 45.2093H71.2866V38.6541H67.4147V37.5606H76.2534V38.6541H72.3814V45.2093Z" fill="#EEEEEE"/>
<mask id="mask0_417_180" style="mask-type:luminance" maskUnits="userSpaceOnUse" x="23" y="36" width="11" height="10">
<path d="M33.0522 36.9169H23.4719V45.8472H33.0522V36.9169Z" fill="white"/>
</mask>
<g mask="url(#mask0_417_180)">
<path fill-rule="evenodd" clip-rule="evenodd" d="M25.0924 37.58C25.022 37.6002 24.9335 37.6784 24.901 37.7492C24.842 37.8779 24.8979 38.0412 25.0249 38.1107C25.0877 38.1451 25.1255 38.1469 25.9308 38.1553L26.771 38.1641L26.6418 38.2448C26.4674 38.3537 26.187 38.5758 26.0199 38.7372L25.8826 38.8696L24.774 38.8744L23.6654 38.8791L23.5948 38.9294C23.4223 39.052 23.4337 39.3079 23.6163 39.4137L23.687 39.4547L24.5538 39.4597C25.0305 39.4625 25.4178 39.4704 25.4145 39.4773C25.4113 39.4841 25.3603 39.5803 25.3013 39.6909C25.1234 40.0244 24.991 40.4073 24.9216 40.7893C24.8793 41.0221 24.8644 41.53 24.893 41.7617C24.969 42.3762 25.1868 42.9604 25.5121 43.4223L25.623 43.5798H25.1416C24.6873 43.5798 24.6565 43.5819 24.5964 43.616C24.5095 43.6654 24.4698 43.7145 24.4459 43.8023C24.4113 43.9285 24.4598 44.0421 24.5797 44.1161L24.6573 44.1641L25.4134 44.1693L26.1696 44.1746L26.364 44.3215C26.4709 44.4023 26.6063 44.498 26.6649 44.5343L26.7713 44.6L25.2385 44.6088C24.076 44.6154 23.6961 44.6227 23.6657 44.639C23.6008 44.6736 23.5305 44.7622 23.5091 44.8363C23.4694 44.9738 23.554 45.1225 23.7017 45.175C23.7732 45.2004 24.0422 45.2026 26.5687 45.1974C29.6278 45.1911 29.4553 45.1969 29.9454 45.0856C31.1026 44.8231 32.0995 44.0724 32.6378 43.058C32.9179 42.5301 33.0522 41.9872 33.0522 41.3821C33.0522 40.777 32.9179 40.234 32.6378 39.7061C32.1021 38.6966 31.1168 37.9507 29.9674 37.6841C29.4711 37.5691 29.5675 37.5732 27.2517 37.5687C26.0619 37.5663 25.123 37.5712 25.0924 37.58ZM28.683 38.1724C27.8523 38.2396 27.1212 38.5565 26.5301 39.1055C25.9958 39.6016 25.6668 40.2053 25.5462 40.9111C25.5131 41.1049 25.5131 41.6592 25.5462 41.853C25.6668 42.5588 25.9958 43.1625 26.5301 43.6586C27.0596 44.1505 27.6932 44.4517 28.4399 44.5664C28.6944 44.6055 29.2346 44.6054 29.4877 44.5662C30.6201 44.3904 31.5518 43.7554 32.0603 42.8126C32.4218 42.1425 32.5159 41.3042 32.3109 40.5797C31.9563 39.327 30.8579 38.3986 29.497 38.2012C29.2686 38.1681 28.898 38.155 28.683 38.1724ZM28.6889 39.0288C27.413 39.1548 26.4289 40.1798 26.4284 41.3833C26.4283 41.7524 26.5102 42.075 26.6928 42.4239C27.3183 43.6192 28.8627 44.0941 30.1332 43.4818C30.8443 43.139 31.3303 42.5144 31.4716 41.7614C31.5112 41.5511 31.5013 41.0966 31.4527 40.8937C31.2827 40.1825 30.7886 39.588 30.0978 39.2638C29.6703 39.0631 29.1762 38.9807 28.6889 39.0288ZM28.4419 39.6746C28.1484 39.7526 27.8569 39.9136 27.6265 40.125C27.467 40.2714 27.2586 40.5471 27.2949 40.5634C27.3071 40.5689 27.4832 40.6235 27.6861 40.6845L28.055 40.7957L28.188 40.6711C28.2918 40.5737 28.3573 40.5301 28.4876 40.4715L28.6544 40.3966L28.6547 40.0172L28.655 39.6379L28.6129 39.6391C28.5897 39.6398 28.5127 39.6557 28.4419 39.6746ZM29.2955 40.0235L29.3006 40.4092L29.3754 40.4364C29.5009 40.482 29.6505 40.5794 29.7646 40.6898L29.873 40.7947L30.2417 40.6848C30.4445 40.6243 30.6209 40.5697 30.6338 40.5635C30.672 40.545 30.4827 40.2922 30.3125 40.1342C30.1449 39.9787 30.0045 39.8837 29.8018 39.7886C29.6782 39.7306 29.3798 39.6379 29.3168 39.6379C29.2948 39.6379 29.2913 39.7014 29.2955 40.0235ZM28.856 40.9709C28.4302 41.0764 28.3831 41.6052 28.7847 41.7709C28.8769 41.809 29.0415 41.8165 29.1228 41.7865C29.3782 41.6922 29.4936 41.4179 29.3729 41.192C29.2759 41.0106 29.0632 40.9196 28.856 40.9709ZM27.0719 41.1853C27.0652 41.2188 27.0639 41.3415 27.0691 41.458C27.0871 41.8612 27.2176 42.1806 27.5 42.5127C27.5773 42.6035 27.5981 42.6189 27.618 42.5998C27.6314 42.5872 27.7431 42.4473 27.8665 42.289L28.0907 42.0013L28.0537 41.9489C27.9625 41.8203 27.8968 41.6434 27.8774 41.4749C27.8685 41.3966 27.8555 41.3586 27.8352 41.3514C27.8191 41.3456 27.6436 41.2922 27.445 41.2326L27.0842 41.1244L27.0719 41.1853ZM30.4513 41.2423L30.0677 41.3585L30.0551 41.4706C30.038 41.6232 29.9789 41.7905 29.902 41.904L29.8379 41.9986L29.9822 42.1831C30.0616 42.2845 30.171 42.4247 30.2254 42.4946C30.3408 42.643 30.3283 42.6455 30.4917 42.4405C30.6257 42.2725 30.7344 42.0682 30.7997 41.8617C30.8412 41.7303 30.8507 41.6597 30.8583 41.4286C30.8634 41.2768 30.8602 41.1466 30.8512 41.1393C30.8422 41.132 30.6623 41.1783 30.4513 41.2423ZM28.3784 42.639C28.2527 42.7998 28.145 42.9431 28.1392 42.9573C28.1258 42.9898 28.352 43.0743 28.5708 43.1185C28.7803 43.1608 29.1597 43.1612 29.3567 43.1195C29.532 43.0822 29.7964 42.9912 29.7964 42.968C29.7964 42.9592 29.69 42.8154 29.5599 42.6483L29.3234 42.3447L29.2291 42.3708C29.1114 42.4034 28.8282 42.4034 28.7012 42.3707L28.607 42.3465L28.3784 42.639Z" fill="#EEEEEE"/>
</g>
</svg>
