<svg width="99" height="95" viewBox="0 0 99 95" fill="none" xmlns="http://www.w3.org/2000/svg">
<g filter="url(#filter0_d_4_50)">
<path d="M38.52 56.04V53.051C38.52 52.4461 38.6658 51.8903 38.9572 51.3836C39.2487 50.8769 39.6353 50.4897 40.1171 50.2221C41.1486 49.6706 42.1967 49.2571 43.2614 48.9817C44.3261 48.7063 45.4075 48.5682 46.5055 48.5675C47.6035 48.5668 48.6848 48.7049 49.7496 48.9817C50.8143 49.2585 51.8624 49.672 52.8938 50.2221C53.3763 50.489 53.7633 50.8761 54.0547 51.3836C54.3462 51.891 54.4916 52.4468 54.4909 53.051V56.04H38.52ZM56.4873 56.04V52.8375C56.4873 52.0547 56.2837 51.3028 55.8764 50.5819C55.4691 49.861 54.8909 49.2429 54.1416 48.7276C54.99 48.8344 55.7886 49.0169 56.5372 49.2753C57.2858 49.5336 57.9846 49.8492 58.6334 50.2221C59.2323 50.578 59.6898 50.9736 60.0059 51.4092C60.322 51.8447 60.48 52.3208 60.48 52.8375V56.04H56.4873ZM46.5055 47.5C45.4075 47.5 44.4675 47.0819 43.6856 46.2457C42.9037 45.4095 42.5127 44.4043 42.5127 43.23C42.5127 42.0558 42.9037 41.0505 43.6856 40.2143C44.4675 39.3781 45.4075 38.96 46.5055 38.96C47.6035 38.96 48.5434 39.3781 49.3253 40.2143C50.1072 41.0505 50.4982 42.0558 50.4982 43.23C50.4982 44.4043 50.1072 45.4095 49.3253 46.2457C48.5434 47.0819 47.6035 47.5 46.5055 47.5ZM56.4873 43.23C56.4873 44.4043 56.0963 45.4095 55.3144 46.2457C54.5325 47.0819 53.5926 47.5 52.4946 47.5C52.3116 47.5 52.0787 47.4779 51.7958 47.4338C51.513 47.3897 51.2801 47.3406 51.0971 47.2865C51.5463 46.7172 51.8917 46.0856 52.1332 45.3917C52.3748 44.6978 52.4952 43.9773 52.4946 43.23C52.4939 42.4828 52.3735 41.7622 52.1332 41.0683C51.893 40.3745 51.5476 39.7429 51.0971 39.1735C51.33 39.0846 51.5629 39.0266 51.7958 38.9995C52.0287 38.9725 52.2617 38.9593 52.4946 38.96C53.5926 38.96 54.5325 39.3781 55.3144 40.2143C56.0963 41.0505 56.4873 42.0558 56.4873 43.23Z" fill="#54FFAD"/>
</g>
<defs>
<filter id="filter0_d_4_50" x="0.320019" y="0.759991" width="98.36" height="93.48" filterUnits="userSpaceOnUse" color-interpolation-filters="sRGB">
<feFlood flood-opacity="0" result="BackgroundImageFix"/>
<feColorMatrix in="SourceAlpha" type="matrix" values="0 0 0 0 0 0 0 0 0 0 0 0 0 0 0 0 0 0 127 0" result="hardAlpha"/>
<feOffset/>
<feGaussianBlur stdDeviation="19.1"/>
<feComposite in2="hardAlpha" operator="out"/>
<feColorMatrix type="matrix" values="0 0 0 0 0.329412 0 0 0 0 1 0 0 0 0 0.678431 0 0 0 0.79 0"/>
<feBlend mode="normal" in2="BackgroundImageFix" result="effect1_dropShadow_4_50"/>
<feBlend mode="normal" in="SourceGraphic" in2="effect1_dropShadow_4_50" result="shape"/>
</filter>
</defs>
</svg>
